<?xml version="1.0" encoding="us-ascii" standalone="no"?><svg xmlns="http://www.w3.org/2000/svg" xmlns:xlink="http://www.w3.org/1999/xlink" contentStyleType="text/css" height="1167px" preserveAspectRatio="none" style="width:776px;height:1167px;background:#FFFFFF;" version="1.1" viewBox="0 0 776 1167" width="776px" zoomAndPan="magnify"><defs/><g><!--class app.backend.client.ClientThread--><g id="elem_app.backend.client.ClientThread"><rect codeLine="2" fill="#F1F1F1" height="181.4754" id="app.backend.client.ClientThread" rx="2.5" ry="2.5" style="stroke:#181818;stroke-width:0.5;" width="154" x="82.5" y="718.63"/><ellipse cx="113.25" cy="734.63" fill="#ADD1B2" rx="11" ry="11" style="stroke:#181818;stroke-width:1.0;"/><path d="M113.3594,730.1612 Q112.4375,730.1612 111.7031,730.4737 Q110.9844,730.7862 110.4844,731.38 Q109.9844,731.9581 109.7031,732.8331 Q109.4375,733.7081 109.4375,734.8019 Q109.4375,736.2394 109.875,737.2862 Q110.3281,738.3331 111.1719,738.88 Q112.0313,739.4269 113.3438,739.4269 Q114.125,739.4269 114.8125,739.3019 Q115.5156,739.1612 116.5156,738.8487 L116.5156,740.7237 Q115.6563,741.0519 114.8906,741.1769 Q114.1406,741.3019 113.125,741.3019 Q111.2031,741.3019 109.8906,740.505 Q108.5938,739.6925 107.9375,738.2237 Q107.2813,736.7394 107.2813,734.7706 Q107.2813,733.3487 107.6719,732.1769 Q108.0781,730.9894 108.8594,730.1144 Q109.6406,729.2394 110.7813,728.7706 Q111.9219,728.2862 113.3906,728.2862 Q114.3438,728.2862 115.2344,728.4894 Q116.1406,728.6769 117.0781,729.1456 L116.25,730.9269 Q115.4688,730.5519 114.8125,730.3644 Q114.1563,730.1612 113.3594,730.1612 Z " fill="#000000"/><text fill="#000000" font-family="sans-serif" font-size="14" lengthAdjust="spacing" textLength="87" x="130.75" y="740.062">ClientThread</text><line style="stroke:#181818;stroke-width:0.5;" x1="83.5" x2="235.5" y1="750.63" y2="750.63"/><line style="stroke:#181818;stroke-width:0.5;" x1="83.5" x2="235.5" y1="758.63" y2="758.63"/><text fill="#000000" font-family="sans-serif" font-size="14" lengthAdjust="spacing" textLength="133" x="88.5" y="777.5959">cancel_transaction()</text><text fill="#000000" font-family="sans-serif" font-size="14" lengthAdjust="spacing" textLength="142" x="88.5" y="796.6639">confirm_transaction()</text><text fill="#000000" font-family="sans-serif" font-size="14" lengthAdjust="spacing" textLength="61" x="88.5" y="815.7318">connect()</text><text fill="#000000" font-family="sans-serif" font-size="14" lengthAdjust="spacing" textLength="60" x="88.5" y="834.7997">request()</text><text fill="#000000" font-family="sans-serif" font-size="14" lengthAdjust="spacing" textLength="142" x="88.5" y="853.8676">request_transaction()</text><text fill="#000000" font-family="sans-serif" font-size="14" lengthAdjust="spacing" textLength="32" x="88.5" y="872.9355">run()</text><text fill="#000000" font-family="sans-serif" font-size="14" lengthAdjust="spacing" textLength="121" x="88.5" y="892.0034">start_transaction()</text></g><!--class app.backend.discovery.DiscoveryThread--><g id="elem_app.backend.discovery.DiscoveryThread"><rect codeLine="11" fill="#F1F1F1" height="124.2717" id="app.backend.discovery.DiscoveryThread" rx="2.5" ry="2.5" style="stroke:#181818;stroke-width:0.5;" width="158" x="557.5" y="747.23"/><ellipse cx="578.8" cy="763.23" fill="#ADD1B2" rx="11" ry="11" style="stroke:#181818;stroke-width:1.0;"/><path d="M578.9094,758.7612 Q577.9875,758.7612 577.2531,759.0737 Q576.5344,759.3862 576.0344,759.98 Q575.5344,760.5581 575.2531,761.4331 Q574.9875,762.3081 574.9875,763.4019 Q574.9875,764.8394 575.425,765.8862 Q575.8781,766.9331 576.7219,767.48 Q577.5813,768.0269 578.8938,768.0269 Q579.675,768.0269 580.3625,767.9019 Q581.0656,767.7612 582.0656,767.4487 L582.0656,769.3237 Q581.2063,769.6519 580.4406,769.7769 Q579.6906,769.9019 578.675,769.9019 Q576.7531,769.9019 575.4406,769.105 Q574.1438,768.2925 573.4875,766.8237 Q572.8313,765.3394 572.8313,763.3706 Q572.8313,761.9487 573.2219,760.7769 Q573.6281,759.5894 574.4094,758.7144 Q575.1906,757.8394 576.3313,757.3706 Q577.4719,756.8862 578.9406,756.8862 Q579.8938,756.8862 580.7844,757.0894 Q581.6906,757.2769 582.6281,757.7456 L581.8,759.5269 Q581.0188,759.1519 580.3625,758.9644 Q579.7063,758.7612 578.9094,758.7612 Z " fill="#000000"/><text fill="#000000" font-family="sans-serif" font-size="14" lengthAdjust="spacing" textLength="112" x="594.2" y="768.662">DiscoveryThread</text><line style="stroke:#181818;stroke-width:0.5;" x1="558.5" x2="714.5" y1="779.23" y2="779.23"/><text fill="#000000" font-family="sans-serif" font-size="14" lengthAdjust="spacing" textLength="146" x="563.5" y="798.1959">signal_hosts_updated</text><line style="stroke:#181818;stroke-width:0.5;" x1="558.5" x2="714.5" y1="806.2979" y2="806.2979"/><text fill="#000000" font-family="sans-serif" font-size="14" lengthAdjust="spacing" textLength="137" x="563.5" y="825.2639">add_host_manually()</text><text fill="#000000" font-family="sans-serif" font-size="14" lengthAdjust="spacing" textLength="32" x="563.5" y="844.3318">run()</text><text fill="#000000" font-family="sans-serif" font-size="14" lengthAdjust="spacing" textLength="98" x="563.5" y="863.3997">update_hosts()</text></g><!--class app.gui.GUI--><g id="elem_app.gui.GUI"><rect codeLine="17" fill="#F1F1F1" height="295.8829" id="app.gui.GUI" rx="2.5" ry="2.5" style="stroke:#181818;stroke-width:0.5;" width="210" x="310.5" y="343.75"/><ellipse cx="398.75" cy="359.75" fill="#ADD1B2" rx="11" ry="11" style="stroke:#181818;stroke-width:1.0;"/><path d="M398.8594,355.2812 Q397.9375,355.2812 397.2031,355.5937 Q396.4844,355.9062 395.9844,356.5 Q395.4844,357.0781 395.2031,357.9531 Q394.9375,358.8281 394.9375,359.9219 Q394.9375,361.3594 395.375,362.4062 Q395.8281,363.4531 396.6719,364 Q397.5313,364.5469 398.8438,364.5469 Q399.625,364.5469 400.3125,364.4219 Q401.0156,364.2812 402.0156,363.9687 L402.0156,365.8437 Q401.1563,366.1719 400.3906,366.2969 Q399.6406,366.4219 398.625,366.4219 Q396.7031,366.4219 395.3906,365.625 Q394.0938,364.8125 393.4375,363.3437 Q392.7813,361.8594 392.7813,359.8906 Q392.7813,358.4687 393.1719,357.2969 Q393.5781,356.1094 394.3594,355.2344 Q395.1406,354.3594 396.2813,353.8906 Q397.4219,353.4062 398.8906,353.4062 Q399.8438,353.4062 400.7344,353.6094 Q401.6406,353.7969 402.5781,354.2656 L401.75,356.0469 Q400.9688,355.6719 400.3125,355.4844 Q399.6563,355.2812 398.8594,355.2812 Z " fill="#000000"/><text fill="#000000" font-family="sans-serif" font-size="14" lengthAdjust="spacing" textLength="25" x="419.25" y="365.182">GUI</text><line style="stroke:#181818;stroke-width:0.5;" x1="311.5" x2="519.5" y1="375.75" y2="375.75"/><text fill="#000000" font-family="sans-serif" font-size="14" lengthAdjust="spacing" textLength="47" x="316.5" y="394.7159">engine</text><text fill="#000000" font-family="sans-serif" font-size="14" lengthAdjust="spacing" textLength="176" x="316.5" y="413.7839">signal_add_host_manually</text><text fill="#000000" font-family="sans-serif" font-size="14" lengthAdjust="spacing" textLength="172" x="316.5" y="432.8518">signal_cancel_transaction</text><text fill="#000000" font-family="sans-serif" font-size="14" lengthAdjust="spacing" textLength="181" x="316.5" y="451.9197">signal_confirm_transaction</text><text fill="#000000" font-family="sans-serif" font-size="14" lengthAdjust="spacing" textLength="146" x="316.5" y="470.9876">signal_hosts_updated</text><text fill="#000000" font-family="sans-serif" font-size="14" lengthAdjust="spacing" textLength="181" x="316.5" y="490.0555">signal_request_transaction</text><text fill="#000000" font-family="sans-serif" font-size="14" lengthAdjust="spacing" textLength="198" x="316.5" y="509.1234">signal_transaction_requested</text><line style="stroke:#181818;stroke-width:0.5;" x1="311.5" x2="519.5" y1="517.2254" y2="517.2254"/><text fill="#000000" font-family="sans-serif" font-size="14" lengthAdjust="spacing" textLength="167" x="316.5" y="536.1914">slot_add_host_manually()</text><text fill="#000000" font-family="sans-serif" font-size="14" lengthAdjust="spacing" textLength="163" x="316.5" y="555.2593">slot_cancel_transaction()</text><text fill="#000000" font-family="sans-serif" font-size="14" lengthAdjust="spacing" textLength="172" x="316.5" y="574.3272">slot_confirm_transaction()</text><text fill="#000000" font-family="sans-serif" font-size="14" lengthAdjust="spacing" textLength="137" x="316.5" y="593.3951">slot_hosts_updated()</text><text fill="#000000" font-family="sans-serif" font-size="14" lengthAdjust="spacing" textLength="172" x="316.5" y="612.463">slot_request_transaction()</text><text fill="#000000" font-family="sans-serif" font-size="14" lengthAdjust="spacing" textLength="189" x="316.5" y="631.5309">slot_transaction_requested()</text></g><!--class app.storage.Host--><g id="elem_app.storage.Host"><rect codeLine="32" fill="#F1F1F1" height="181.4754" id="app.storage.Host" rx="2.5" ry="2.5" style="stroke:#181818;stroke-width:0.5;" width="94" x="667.5" y="979.1"/><ellipse cx="696.9" cy="995.1" fill="#ADD1B2" rx="11" ry="11" style="stroke:#181818;stroke-width:1.0;"/><path d="M697.0094,990.6312 Q696.0875,990.6312 695.3531,990.9437 Q694.6344,991.2562 694.1344,991.85 Q693.6344,992.4281 693.3531,993.3031 Q693.0875,994.1781 693.0875,995.2719 Q693.0875,996.7094 693.525,997.7562 Q693.9781,998.8031 694.8219,999.35 Q695.6813,999.8969 696.9938,999.8969 Q697.775,999.8969 698.4625,999.7719 Q699.1656,999.6312 700.1656,999.3187 L700.1656,1001.1937 Q699.3063,1001.5219 698.5406,1001.6469 Q697.7906,1001.7719 696.775,1001.7719 Q694.8531,1001.7719 693.5406,1000.975 Q692.2438,1000.1625 691.5875,998.6937 Q690.9313,997.2094 690.9313,995.2406 Q690.9313,993.8187 691.3219,992.6469 Q691.7281,991.4594 692.5094,990.5844 Q693.2906,989.7094 694.4313,989.2406 Q695.5719,988.7562 697.0406,988.7562 Q697.9938,988.7562 698.8844,988.9594 Q699.7906,989.1469 700.7281,989.6156 L699.9,991.3969 Q699.1188,991.0219 698.4625,990.8344 Q697.8063,990.6312 697.0094,990.6312 Z " fill="#000000"/><text fill="#000000" font-family="sans-serif" font-size="14" lengthAdjust="spacing" textLength="30" x="714.1" y="1000.532">Host</text><line style="stroke:#181818;stroke-width:0.5;" x1="668.5" x2="760.5" y1="1011.1" y2="1011.1"/><text fill="#000000" font-family="sans-serif" font-size="14" lengthAdjust="spacing" textLength="54" x="673.5" y="1030.0659">address</text><text fill="#000000" font-family="sans-serif" font-size="14" lengthAdjust="spacing" textLength="32" x="673.5" y="1049.1339">busy</text><text fill="#000000" font-family="sans-serif" font-size="14" lengthAdjust="spacing" textLength="73" x="673.5" y="1068.2018">discovered</text><text fill="#000000" font-family="sans-serif" font-size="14" lengthAdjust="spacing" textLength="67" x="673.5" y="1087.2697">hostname</text><text fill="#000000" font-family="sans-serif" font-size="14" lengthAdjust="spacing" textLength="72" x="673.5" y="1106.3376">timestamp</text><text fill="#000000" font-family="sans-serif" font-size="14" lengthAdjust="spacing" textLength="68" x="673.5" y="1125.4055">username</text><line style="stroke:#181818;stroke-width:0.5;" x1="668.5" x2="760.5" y1="1133.5075" y2="1133.5075"/><text fill="#000000" font-family="sans-serif" font-size="14" lengthAdjust="spacing" textLength="82" x="673.5" y="1152.4734">get_as_dict()</text></g><!--class app.backend.server.ServerThread--><g id="elem_app.backend.server.ServerThread"><rect codeLine="41" fill="#F1F1F1" height="257.7471" id="app.backend.server.ServerThread" rx="2.5" ry="2.5" style="stroke:#181818;stroke-width:0.5;" width="210" x="310.5" y="7"/><ellipse cx="365.75" cy="23" fill="#ADD1B2" rx="11" ry="11" style="stroke:#181818;stroke-width:1.0;"/><path d="M365.8594,18.5313 Q364.9375,18.5313 364.2031,18.8438 Q363.4844,19.1563 362.9844,19.75 Q362.4844,20.3281 362.2031,21.2031 Q361.9375,22.0781 361.9375,23.1719 Q361.9375,24.6094 362.375,25.6563 Q362.8281,26.7031 363.6719,27.25 Q364.5313,27.7969 365.8438,27.7969 Q366.625,27.7969 367.3125,27.6719 Q368.0156,27.5313 369.0156,27.2188 L369.0156,29.0938 Q368.1563,29.4219 367.3906,29.5469 Q366.6406,29.6719 365.625,29.6719 Q363.7031,29.6719 362.3906,28.875 Q361.0938,28.0625 360.4375,26.5938 Q359.7813,25.1094 359.7813,23.1406 Q359.7813,21.7188 360.1719,20.5469 Q360.5781,19.3594 361.3594,18.4844 Q362.1406,17.6094 363.2813,17.1406 Q364.4219,16.6563 365.8906,16.6563 Q366.8438,16.6563 367.7344,16.8594 Q368.6406,17.0469 369.5781,17.5156 L368.75,19.2969 Q367.9688,18.9219 367.3125,18.7344 Q366.6563,18.5313 365.8594,18.5313 Z " fill="#000000"/><text fill="#000000" font-family="sans-serif" font-size="14" lengthAdjust="spacing" textLength="91" x="386.25" y="28.432">ServerThread</text><line style="stroke:#181818;stroke-width:0.5;" x1="311.5" x2="519.5" y1="39" y2="39"/><text fill="#000000" font-family="sans-serif" font-size="14" lengthAdjust="spacing" textLength="76" x="316.5" y="57.9659">http_server</text><text fill="#000000" font-family="sans-serif" font-size="14" lengthAdjust="spacing" textLength="97" x="316.5" y="77.0339">listen_address</text><text fill="#000000" font-family="sans-serif" font-size="14" lengthAdjust="spacing" textLength="160" x="316.5" y="96.1018">signal_start_transaction</text><text fill="#000000" font-family="sans-serif" font-size="14" lengthAdjust="spacing" textLength="198" x="316.5" y="115.1697">signal_transaction_requested</text><line style="stroke:#181818;stroke-width:0.5;" x1="311.5" x2="519.5" y1="123.2717" y2="123.2717"/><text fill="#000000" font-family="sans-serif" font-size="14" lengthAdjust="spacing" textLength="133" x="316.5" y="142.2376">cancel_transaction()</text><text fill="#000000" font-family="sans-serif" font-size="14" lengthAdjust="spacing" textLength="66" x="316.5" y="161.3055">catch_all()</text><text fill="#000000" font-family="sans-serif" font-size="14" lengthAdjust="spacing" textLength="142" x="316.5" y="180.3734">confirm_transaction()</text><text fill="#000000" font-family="sans-serif" font-size="14" lengthAdjust="spacing" textLength="61" x="316.5" y="199.4414">connect()</text><text fill="#000000" font-family="sans-serif" font-size="14" lengthAdjust="spacing" textLength="142" x="316.5" y="218.5093">request_transaction()</text><text fill="#000000" font-family="sans-serif" font-size="14" lengthAdjust="spacing" textLength="32" x="316.5" y="237.5772">run()</text><text fill="#000000" font-family="sans-serif" font-size="14" lengthAdjust="spacing" textLength="121" x="316.5" y="256.6451">start_transaction()</text></g><!--class app.backend.client.SimpleResponse--><g id="elem_app.backend.client.SimpleResponse"><rect codeLine="54" fill="#F1F1F1" height="86.1358" id="app.backend.client.SimpleResponse" rx="2.5" ry="2.5" style="stroke:#181818;stroke-width:0.5;" width="143" x="7" y="1026.77"/><ellipse cx="22" cy="1042.77" fill="#ADD1B2" rx="11" ry="11" style="stroke:#181818;stroke-width:1.0;"/><path d="M22.1094,1038.3013 Q21.1875,1038.3013 20.4531,1038.6138 Q19.7344,1038.9263 19.2344,1039.52 Q18.7344,1040.0981 18.4531,1040.9731 Q18.1875,1041.8481 18.1875,1042.9419 Q18.1875,1044.3794 18.625,1045.4263 Q19.0781,1046.4731 19.9219,1047.02 Q20.7813,1047.5669 22.0938,1047.5669 Q22.875,1047.5669 23.5625,1047.4419 Q24.2656,1047.3013 25.2656,1046.9888 L25.2656,1048.8638 Q24.4063,1049.1919 23.6406,1049.3169 Q22.8906,1049.4419 21.875,1049.4419 Q19.9531,1049.4419 18.6406,1048.645 Q17.3438,1047.8325 16.6875,1046.3638 Q16.0313,1044.8794 16.0313,1042.9106 Q16.0313,1041.4888 16.4219,1040.3169 Q16.8281,1039.1294 17.6094,1038.2544 Q18.3906,1037.3794 19.5313,1036.9106 Q20.6719,1036.4263 22.1406,1036.4263 Q23.0938,1036.4263 23.9844,1036.6294 Q24.8906,1036.8169 25.8281,1037.2856 L25,1039.0669 Q24.2188,1038.6919 23.5625,1038.5044 Q22.9063,1038.3013 22.1094,1038.3013 Z " fill="#000000"/><text fill="#000000" font-family="sans-serif" font-size="14" lengthAdjust="spacing" textLength="111" x="36" y="1048.202">SimpleResponse</text><line style="stroke:#181818;stroke-width:0.5;" x1="8" x2="149" y1="1058.77" y2="1058.77"/><text fill="#000000" font-family="sans-serif" font-size="14" lengthAdjust="spacing" textLength="30" x="13" y="1077.7359">data</text><text fill="#000000" font-family="sans-serif" font-size="14" lengthAdjust="spacing" textLength="55" x="13" y="1096.8039">headers</text><line style="stroke:#181818;stroke-width:0.5;" x1="8" x2="149" y1="1104.9058" y2="1104.9058"/></g><!--class app.storage.Transaction--><g id="elem_app.storage.Transaction"><rect codeLine="58" fill="#F1F1F1" height="143.3396" id="app.storage.Transaction" rx="2.5" ry="2.5" style="stroke:#181818;stroke-width:0.5;" width="111" x="185" y="998.17"/><ellipse cx="200" cy="1014.17" fill="#ADD1B2" rx="11" ry="11" style="stroke:#181818;stroke-width:1.0;"/><path d="M200.1094,1009.7013 Q199.1875,1009.7013 198.4531,1010.0138 Q197.7344,1010.3263 197.2344,1010.92 Q196.7344,1011.4981 196.4531,1012.3731 Q196.1875,1013.2481 196.1875,1014.3419 Q196.1875,1015.7794 196.625,1016.8263 Q197.0781,1017.8731 197.9219,1018.42 Q198.7813,1018.9669 200.0938,1018.9669 Q200.875,1018.9669 201.5625,1018.8419 Q202.2656,1018.7013 203.2656,1018.3888 L203.2656,1020.2638 Q202.4063,1020.5919 201.6406,1020.7169 Q200.8906,1020.8419 199.875,1020.8419 Q197.9531,1020.8419 196.6406,1020.045 Q195.3438,1019.2325 194.6875,1017.7638 Q194.0313,1016.2794 194.0313,1014.3106 Q194.0313,1012.8888 194.4219,1011.7169 Q194.8281,1010.5294 195.6094,1009.6544 Q196.3906,1008.7794 197.5313,1008.3106 Q198.6719,1007.8263 200.1406,1007.8263 Q201.0938,1007.8263 201.9844,1008.0294 Q202.8906,1008.2169 203.8281,1008.6856 L203,1010.4669 Q202.2188,1010.0919 201.5625,1009.9044 Q200.9063,1009.7013 200.1094,1009.7013 Z " fill="#000000"/><text fill="#000000" font-family="sans-serif" font-size="14" lengthAdjust="spacing" textLength="79" x="214" y="1019.602">Transaction</text><line style="stroke:#181818;stroke-width:0.5;" x1="186" x2="295" y1="1030.17" y2="1030.17"/><text fill="#000000" font-family="sans-serif" font-size="14" lengthAdjust="spacing" textLength="54" x="191" y="1049.1359">address</text><text fill="#000000" font-family="sans-serif" font-size="14" lengthAdjust="spacing" textLength="58" x="191" y="1068.2039">file_path</text><text fill="#000000" font-family="sans-serif" font-size="14" lengthAdjust="spacing" textLength="76" x="191" y="1087.2718">save_folder</text><text fill="#000000" font-family="sans-serif" font-size="14" lengthAdjust="spacing" textLength="37" x="191" y="1106.3397">stage</text><text fill="#000000" font-family="sans-serif" font-size="14" lengthAdjust="spacing" textLength="95" x="191" y="1125.4076">transaction_id</text><line style="stroke:#181818;stroke-width:0.5;" x1="186" x2="295" y1="1133.5096" y2="1133.5096"/></g><!--link app.backend.discovery.DiscoveryThread to app.storage.Host--><g id="link_app.backend.discovery.DiscoveryThread_app.storage.Host"><path codeLine="66" d="M653.87,871.94 C660.77,896.05 668.87,923.91 676.5,949.1 C679.41,958.71 680.7149,962.9917 683.8249,972.9717 " fill="none" id="app.backend.discovery.DiscoveryThread-to-app.storage.Host" style="stroke:#181818;stroke-width:1.0;"/><polygon fill="#181818" points="685.61,978.7,686.7513,968.9175,684.1224,973.9264,679.1135,971.2976,685.61,978.7" style="stroke:#181818;stroke-width:1.0;"/><text fill="#000000" font-family="sans-serif" font-size="13" lengthAdjust="spacing" textLength="66" x="677.5" y="944.997">may create</text></g><!--link app.backend.discovery.DiscoveryThread to app.gui.GUI--><g id="link_app.backend.discovery.DiscoveryThread_app.gui.GUI"><path codeLine="67" d="M626.48,746.85 C620.59,721.7 611.45,693.07 597.5,669.63 C577.33,635.73 553.3573,608.0558 525.0573,581.0058 " fill="none" id="app.backend.discovery.DiscoveryThread-to-app.gui.GUI" style="stroke:#181818;stroke-width:1.0;"/><polygon fill="#181818" points="520.72,576.86,524.4622,585.9702,524.3345,580.3148,529.9899,580.1871,520.72,576.86" style="stroke:#181818;stroke-width:1.0;"/><text fill="#000000" font-family="sans-serif" font-size="13" lengthAdjust="spacing" textLength="92" x="607.5" y="684.527">clients updated</text></g><!--link app.gui.GUI to app.backend.discovery.DiscoveryThread--><g id="link_app.gui.GUI_app.backend.discovery.DiscoveryThread"><path codeLine="75" d="M450.14,640.1 C457.37,657.25 466.07,673.86 476.5,688.63 C497.52,718.38 523.2539,740.4882 552.1539,760.2082 " fill="none" id="app.gui.GUI-to-app.backend.discovery.DiscoveryThread" style="stroke:#181818;stroke-width:1.0;"/><polygon fill="#181818" points="557.11,763.59,551.9304,755.2132,552.9799,760.7718,547.4213,761.8213,557.11,763.59" style="stroke:#181818;stroke-width:1.0;"/><text fill="#000000" font-family="sans-serif" font-size="13" lengthAdjust="spacing" textLength="111" x="477.5" y="684.527">add host manually</text></g><!--link app.backend.client.ClientThread to app.storage.Transaction--><g id="link_app.backend.client.ClientThread_app.storage.Transaction"><path codeLine="68" d="M187.72,900.41 C197.72,932.31 207.0262,962.0144 216.4562,992.1144 " fill="none" id="app.backend.client.ClientThread-to-app.storage.Transaction" style="stroke:#181818;stroke-width:1.0;"/><polygon fill="#181818" points="218.25,997.84,219.3764,988.0558,216.7552,993.0687,211.7423,990.4475,218.25,997.84" style="stroke:#181818;stroke-width:1.0;"/><text fill="#000000" font-family="sans-serif" font-size="13" lengthAdjust="spacing" textLength="47" x="203.5" y="944.997">initiates</text></g><!--link app.backend.client.ClientThread to app.backend.client.SimpleResponse--><g id="link_app.backend.client.ClientThread_app.backend.client.SimpleResponse"><path codeLine="69" d="M131.28,900.41 C117.86,943.24 104.2443,986.6946 93.5543,1020.8046 " fill="none" id="app.backend.client.ClientThread-to-app.backend.client.SimpleResponse" style="stroke:#181818;stroke-width:1.0;"/><polygon fill="#181818" points="91.76,1026.53,98.2684,1019.1381,93.2553,1021.7588,90.6346,1016.7457,91.76,1026.53" style="stroke:#181818;stroke-width:1.0;"/><text fill="#000000" font-family="sans-serif" font-size="13" lengthAdjust="spacing" textLength="27" x="122.5" y="944.997">uses</text></g><!--link app.backend.server.ServerThread to app.storage.Host--><g id="link_app.backend.server.ServerThread_app.storage.Host"><path codeLine="70" d="M520.67,244.29 C533.98,260.52 546.7,277.59 557.5,294.75 C666.11,467.21 685.34,520.35 732.5,718.63 C756.26,818.52 762.66,847.41 748.5,949.1 C747.14,958.84 746.5444,963.0526 744.2544,973.0126 " fill="none" id="app.backend.server.ServerThread-to-app.storage.Host" style="stroke:#181818;stroke-width:1.0;"/><polygon fill="#181818" points="742.91,978.86,748.8249,970.9851,744.0304,973.9871,741.0284,969.1926,742.91,978.86" style="stroke:#181818;stroke-width:1.0;"/><text fill="#000000" font-family="sans-serif" font-size="13" lengthAdjust="spacing" textLength="43" x="725.5" y="684.527">creates</text></g><!--link app.backend.server.ServerThread to app.gui.GUI--><g id="link_app.backend.server.ServerThread_app.gui.GUI"><path codeLine="71" d="M415.5,265.11 C415.5,290.52 415.5,311.39 415.5,337.38 " fill="none" id="app.backend.server.ServerThread-to-app.gui.GUI" style="stroke:#181818;stroke-width:1.0;"/><polygon fill="#181818" points="415.5,343.38,419.5,334.38,415.5,338.38,411.5,334.38,415.5,343.38" style="stroke:#181818;stroke-width:1.0;"/><text fill="#000000" font-family="sans-serif" font-size="13" lengthAdjust="spacing" textLength="132" x="416.5" y="309.647">transaction requested</text></g><!--link app.backend.server.ServerThread to app.backend.client.ClientThread--><g id="link_app.backend.server.ServerThread_app.backend.client.ClientThread"><path codeLine="72" d="M310.2,205.63 C264.35,241.23 214.55,288.79 185.5,343.75 C123.3,461.42 129.6046,614.1116 142.5646,712.2616 " fill="none" id="app.backend.server.ServerThread-to-app.backend.client.ClientThread" style="stroke:#181818;stroke-width:1.0;"/><polygon fill="#181818" points="143.35,718.21,146.1374,708.7638,142.6955,713.253,138.2063,709.8111,143.35,718.21" style="stroke:#181818;stroke-width:1.0;"/><text fill="#000000" font-family="sans-serif" font-size="13" lengthAdjust="spacing" textLength="105" x="186.5" y="497.087">starts transaction</text></g><!--link app.gui.GUI to app.backend.client.ClientThread--><g id="link_app.gui.GUI_app.backend.client.ClientThread"><path codeLine="73" d="M310.19,575.68 C280.59,597.55 247.9,620.39 216.5,639.63 C191.08,655.21 172.17,644.27 156.5,669.63 C147.57,684.08 144.0709,695.0966 143.2709,712.1666 " fill="none" id="app.gui.GUI-to-app.backend.client.ClientThread" style="stroke:#181818;stroke-width:1.0;"/><polygon fill="#181818" points="142.99,718.16,147.4069,709.3571,143.2241,713.1655,139.4157,708.9826,142.99,718.16" style="stroke:#181818;stroke-width:1.0;"/><text fill="#000000" font-family="sans-serif" font-size="13" lengthAdjust="spacing" textLength="123" x="157.5" y="684.527">requests transaction</text></g><!--link app.gui.GUI to app.backend.client.ClientThread--><g id="link_app.gui.GUI_app.backend.client.ClientThread"><path codeLine="74" d="M323.01,640.05 C310.93,656.84 298.3,673.39 285.5,688.63 C270.75,706.2 257.9729,719.7088 241.2229,735.9088 " fill="none" id="app.gui.GUI-to-app.backend.client.ClientThread-1" style="stroke:#181818;stroke-width:1.0;"/><polygon fill="#181818" points="236.91,740.08,246.1601,736.6984,240.504,736.604,240.5985,730.9479,236.91,740.08" style="stroke:#181818;stroke-width:1.0;"/><text fill="#000000" font-family="sans-serif" font-size="13" lengthAdjust="spacing" textLength="117" x="299.5" y="684.527">confirm transaction</text></g><!--SRC=[fLIxZjim4Epz5OIhIt7wW1Hf4Y196rzgOezSIqGeIk5I1nY7_7jMr8jwNUHSPNfdDHpEFWY3S50YrQ3mWZLu29KNhd9uKXQ8nFcpDUZ2K-4Hz5a02QZhx1dKBtGwKn7CqXpnUX92WLDePV3W25GmbNluq8OhTpM-t8exL26UFVvka6RdLRvlkbyAu9Vedq7u5qEgUa5_sz6k1pnRPCONaCaTM5bK54WsjOQ0ciEWTOp94bm3rjvcUhgyxgDKojUVtyVhyyPa_3zUWYutxFHusufzWjQE9jZQrlqNzE4DQoSm2Gw9tRUs2dBRWWZjbBt3TceVmPd8ARnN_mXkYanT_yQae-t4VGqvPcqmUi_Fy4Z4f-U6MgE7VeWlRGMrWy77O7W-0fHrMs12tuTpP2j8QXFxThpqWfuvTbgE8fYbEL5B4K8jEv3_MSClSN8Is5TbrUt_BjZU749GXUJQtJkL_pU95rFM5d_mbgaSuTuIcMT5NxWTeBM7VK9F4-7JTC-gm0csgFFLM9GrXABL2oyehvNLqN5MdyTI9pOQpVUTZYsCnyTFwoRxACubt8JYZ83dEvc6BS4adJtKBnSzPzfQm4irgIFCPvm9XfdeEDFRbM9Edei5tLQhxzdKMNG7GU9EKZ8nTlvnfhTUp-onhIdjYuvw472GfXVsVg9-L8_px7SQi_5en4KdXar-_Wi0]--></g></svg>