<?xml version="1.0" encoding="us-ascii" standalone="no"?><svg xmlns="http://www.w3.org/2000/svg" xmlns:xlink="http://www.w3.org/1999/xlink" contentStyleType="text/css" height="628px" preserveAspectRatio="none" style="width:858px;height:628px;background:#FFFFFF;" version="1.1" viewBox="0 0 858 628" width="858px" zoomAndPan="magnify"><defs/><g><path d="M269.5,10 L269.5,37.706 A0,0 0 0 0 269.5,37.706 L327.5,37.706 A0,0 0 0 0 327.5,37.706 L327.5,28 L347.5,23.853 L327.5,20 L327.5,20 L317.5,10 L269.5,10 A0,0 0 0 0 269.5,10 " fill="#FEFFDD" style="stroke:#181818;stroke-width:0.5;"/><path d="M317.5,10 L317.5,20 L327.5,20 L317.5,10 " fill="#FEFFDD" style="stroke:#181818;stroke-width:0.5;"/><text fill="#000000" font-family="sans-serif" font-size="13" lengthAdjust="spacing" textLength="37" x="275.5" y="28.897">host 1</text><ellipse cx="357.5" cy="23.853" fill="#222222" rx="10" ry="10" style="stroke:#222222;stroke-width:1.0;"/><path d="M690,276.1543 L690,356.9783 L846,356.9783 L846,286.1543 L836,276.1543 L690,276.1543 " fill="#FEFFDD" style="stroke:#181818;stroke-width:0.5;"/><path d="M836,276.1543 L836,286.1543 L846,286.1543 L836,276.1543 " fill="#FEFFDD" style="stroke:#181818;stroke-width:0.5;"/><text fill="#000000" font-family="sans-serif" font-size="13" lengthAdjust="spacing" textLength="135" x="696" y="295.0513">Both discovery_thread</text><text fill="#000000" font-family="sans-serif" font-size="13" lengthAdjust="spacing" textLength="109" x="696" y="312.7573">and server_thread</text><text fill="#000000" font-family="sans-serif" font-size="13" lengthAdjust="spacing" textLength="69" x="696" y="330.4633">process the</text><text fill="#000000" font-family="sans-serif" font-size="13" lengthAdjust="spacing" textLength="106" x="696" y="348.1693">"hosts" dictionary</text><rect fill="#555555" height="6" rx="2.5" ry="2.5" style="stroke:#555555;stroke-width:1.0;" width="669" x="11" y="57.706"/><rect fill="#F1F1F1" height="36.3441" rx="12.5" ry="12.5" style="stroke:#181818;stroke-width:0.5;" width="305" x="83" y="83.706"/><text fill="#000000" font-family="sans-serif" font-size="12" lengthAdjust="spacing" textLength="285" x="93" y="106.5341">instantiate discovery_thread from DiscoveryThread</text><rect fill="#F1F1F1" height="36.3441" rx="12.5" ry="12.5" style="stroke:#181818;stroke-width:0.5;" width="140" x="165.5" y="155.0501"/><text fill="#000000" font-family="sans-serif" font-size="12" lengthAdjust="spacing" textLength="120" x="175.5" y="177.8782">enter multicast group</text><path d="M23,302.7133 L23,330.4193 A0,0 0 0 0 23,330.4193 L138,330.4193 A0,0 0 0 0 138,330.4193 L138,320.7133 L158,316.5663 L138,312.7133 L138,312.7133 L128,302.7133 L23,302.7133 A0,0 0 0 0 23,302.7133 " fill="#FEFFDD" style="stroke:#181818;stroke-width:0.5;"/><path d="M128,302.7133 L128,312.7133 L138,312.7133 L128,302.7133 " fill="#FEFFDD" style="stroke:#181818;stroke-width:0.5;"/><text fill="#000000" font-family="sans-serif" font-size="13" lengthAdjust="spacing" textLength="94" x="29" y="321.6103">sent to all hosts</text><rect fill="#F1F1F1" height="36.3441" rx="12.5" ry="12.5" style="stroke:#181818;stroke-width:0.5;" width="155" x="158" y="298.3942"/><text fill="#000000" font-family="sans-serif" font-size="12" lengthAdjust="spacing" textLength="135" x="168" y="321.2223">send multicast message</text><rect fill="#F1F1F1" height="36.3441" rx="12.5" ry="12.5" style="stroke:#181818;stroke-width:0.5;" width="92" x="189.5" y="369.7384"/><text fill="#000000" font-family="sans-serif" font-size="12" lengthAdjust="spacing" textLength="72" x="199.5" y="392.5664">update hosts</text><path d="M37,445.4015 L37,473.1075 A0,0 0 0 0 37,473.1075 L133,473.1075 A0,0 0 0 0 133,473.1075 L133,463.4015 L153,459.2545 L133,455.4015 L133,455.4015 L123,445.4015 L37,445.4015 A0,0 0 0 0 37,445.4015 " fill="#FEFFDD" style="stroke:#181818;stroke-width:0.5;"/><path d="M123,445.4015 L123,455.4015 L133,455.4015 L123,445.4015 " fill="#FEFFDD" style="stroke:#181818;stroke-width:0.5;"/><text fill="#000000" font-family="sans-serif" font-size="13" lengthAdjust="spacing" textLength="75" x="43" y="464.2985">updates GUI</text><rect fill="#F1F1F1" height="36.3441" rx="12.5" ry="12.5" style="stroke:#181818;stroke-width:0.5;" width="165" x="153" y="441.0825"/><text fill="#000000" font-family="sans-serif" font-size="12" lengthAdjust="spacing" textLength="145" x="163" y="463.9106">emit hosts_updated signal</text><polygon fill="#F1F1F1" points="235.5,226.3942,247.5,238.3942,235.5,250.3942,223.5,238.3942,235.5,226.3942" style="stroke:#181818;stroke-width:0.5;"/><polygon fill="#F1F1F1" points="155,525.4266,316,525.4266,328,537.4266,316,549.4266,155,549.4266,143,537.4266,155,525.4266" style="stroke:#181818;stroke-width:0.5;"/><text fill="#000000" font-family="sans-serif" font-size="11" lengthAdjust="spacing" textLength="161" x="155" y="541.6946">discovery_thread still runnung</text><text fill="#000000" font-family="sans-serif" font-size="11" lengthAdjust="spacing" textLength="22" x="328" y="534.2036">true</text><rect fill="#F1F1F1" height="36.3441" rx="12.5" ry="12.5" style="stroke:#181818;stroke-width:0.5;" width="270" x="398" y="119.3781"/><text fill="#000000" font-family="sans-serif" font-size="12" lengthAdjust="spacing" textLength="250" x="408" y="142.2062">instantiate server_thread from ServerThread</text><rect fill="#F1F1F1" height="36.3441" rx="12.5" ry="12.5" style="stroke:#181818;stroke-width:0.5;" width="125" x="470.5" y="190.7222"/><text fill="#000000" font-family="sans-serif" font-size="12" lengthAdjust="spacing" textLength="105" x="480.5" y="213.5503">start HTTPS server</text><rect fill="#F1F1F1" height="36.3441" rx="12.5" ry="12.5" style="stroke:#181818;stroke-width:0.5;" width="234" x="416" y="334.0663"/><text fill="#000000" font-family="sans-serif" font-size="12" lengthAdjust="spacing" textLength="214" x="426" y="356.8944">wait for connection to route "/connect"</text><rect fill="#F1F1F1" height="36.3441" rx="12.5" ry="12.5" style="stroke:#181818;stroke-width:0.5;" width="198" x="434" y="405.4104"/><text fill="#000000" font-family="sans-serif" font-size="12" lengthAdjust="spacing" textLength="178" x="444" y="428.2385">add remote host to known hosts</text><polygon fill="#F1F1F1" points="533,262.0663,545,274.0663,533,286.0663,521,274.0663,533,262.0663" style="stroke:#181818;stroke-width:0.5;"/><polygon fill="#F1F1F1" points="463,489.7545,603,489.7545,615,501.7545,603,513.7545,463,513.7545,451,501.7545,463,489.7545" style="stroke:#181818;stroke-width:0.5;"/><text fill="#000000" font-family="sans-serif" font-size="11" lengthAdjust="spacing" textLength="140" x="463" y="506.0225">server_thread still running</text><text fill="#000000" font-family="sans-serif" font-size="11" lengthAdjust="spacing" textLength="22" x="615" y="498.5316">true</text><rect fill="#555555" height="6" rx="2.5" ry="2.5" style="stroke:#555555;stroke-width:1.0;" width="669" x="11" y="569.4266"/><ellipse cx="357.5" cy="606.4266" fill="none" rx="11" ry="11" style="stroke:#222222;stroke-width:1.0;"/><ellipse cx="357.5" cy="606.4266" fill="#222222" rx="6" ry="6" style="stroke:#222222;stroke-width:1.0;"/><line style="stroke:#181818;stroke-width:1.0;" x1="235.5" x2="235.5" y1="120.0501" y2="155.0501"/><polygon fill="#181818" points="231.5,145.0501,235.5,155.0501,239.5,145.0501,235.5,149.0501" style="stroke:#181818;stroke-width:1.0;"/><line style="stroke:#181818;stroke-width:1.0;" x1="235.5" x2="235.5" y1="334.7384" y2="369.7384"/><polygon fill="#181818" points="231.5,359.7384,235.5,369.7384,239.5,359.7384,235.5,363.7384" style="stroke:#181818;stroke-width:1.0;"/><line style="stroke:#181818;stroke-width:1.0;" x1="235.5" x2="235.5" y1="406.0825" y2="441.0825"/><polygon fill="#181818" points="231.5,431.0825,235.5,441.0825,239.5,431.0825,235.5,435.0825" style="stroke:#181818;stroke-width:1.0;"/><line style="stroke:#181818;stroke-width:1.0;" x1="235.5" x2="235.5" y1="250.3942" y2="298.3942"/><polygon fill="#181818" points="231.5,288.3942,235.5,298.3942,239.5,288.3942,235.5,292.3942" style="stroke:#181818;stroke-width:1.0;"/><line style="stroke:#181818;stroke-width:1.0;" x1="328" x2="340" y1="537.4266" y2="537.4266"/><polygon fill="#181818" points="336,397.9104,340,387.9104,344,397.9104,340,393.9104" style="stroke:#181818;stroke-width:1.0;"/><line style="stroke:#181818;stroke-width:1.0;" x1="340" x2="340" y1="238.3942" y2="537.4266"/><line style="stroke:#181818;stroke-width:1.0;" x1="340" x2="247.5" y1="238.3942" y2="238.3942"/><polygon fill="#181818" points="257.5,234.3942,247.5,238.3942,257.5,242.3942,253.5,238.3942" style="stroke:#181818;stroke-width:1.0;"/><line style="stroke:#181818;stroke-width:1.0;" x1="235.5" x2="235.5" y1="477.4266" y2="525.4266"/><polygon fill="#181818" points="231.5,515.4266,235.5,525.4266,239.5,515.4266,235.5,519.4266" style="stroke:#181818;stroke-width:1.0;"/><line style="stroke:#181818;stroke-width:1.0;" x1="235.5" x2="235.5" y1="191.3942" y2="226.3942"/><polygon fill="#181818" points="231.5,216.3942,235.5,226.3942,239.5,216.3942,235.5,220.3942" style="stroke:#181818;stroke-width:1.0;"/><line style="stroke:#181818;stroke-width:1.0;" x1="533" x2="533" y1="155.7222" y2="190.7222"/><polygon fill="#181818" points="529,180.7222,533,190.7222,537,180.7222,533,184.7222" style="stroke:#181818;stroke-width:1.0;"/><line style="stroke:#181818;stroke-width:1.0;" x1="533" x2="533" y1="370.4104" y2="405.4104"/><polygon fill="#181818" points="529,395.4104,533,405.4104,537,395.4104,533,399.4104" style="stroke:#181818;stroke-width:1.0;"/><line style="stroke:#181818;stroke-width:1.0;" x1="533" x2="533" y1="286.0663" y2="334.0663"/><polygon fill="#181818" points="529,324.0663,533,334.0663,537,324.0663,533,328.0663" style="stroke:#181818;stroke-width:1.0;"/><line style="stroke:#181818;stroke-width:1.0;" x1="615" x2="662" y1="501.7545" y2="501.7545"/><polygon fill="#181818" points="658,397.9104,662,387.9104,666,397.9104,662,393.9104" style="stroke:#181818;stroke-width:1.0;"/><line style="stroke:#181818;stroke-width:1.0;" x1="662" x2="662" y1="274.0663" y2="501.7545"/><line style="stroke:#181818;stroke-width:1.0;" x1="662" x2="545" y1="274.0663" y2="274.0663"/><polygon fill="#181818" points="555,270.0663,545,274.0663,555,278.0663,551,274.0663" style="stroke:#181818;stroke-width:1.0;"/><line style="stroke:#181818;stroke-width:1.0;" x1="533" x2="533" y1="441.7545" y2="489.7545"/><polygon fill="#181818" points="529,479.7545,533,489.7545,537,479.7545,533,483.7545" style="stroke:#181818;stroke-width:1.0;"/><line style="stroke:#181818;stroke-width:1.0;" x1="533" x2="533" y1="227.0663" y2="262.0663"/><polygon fill="#181818" points="529,252.0663,533,262.0663,537,252.0663,533,256.0663" style="stroke:#181818;stroke-width:1.0;"/><line style="stroke:#181818;stroke-width:1.0;" x1="235.5" x2="235.5" y1="63.706" y2="83.706"/><polygon fill="#181818" points="231.5,73.706,235.5,83.706,239.5,73.706,235.5,77.706" style="stroke:#181818;stroke-width:1.0;"/><line style="stroke:#181818;stroke-width:1.0;" x1="533" x2="533" y1="63.706" y2="119.3781"/><polygon fill="#181818" points="529,109.3781,533,119.3781,537,109.3781,533,113.3781" style="stroke:#181818;stroke-width:1.0;"/><line style="stroke:#181818;stroke-width:1.0;" x1="235.5" x2="235.5" y1="549.4266" y2="569.4266"/><polygon fill="#181818" points="231.5,559.4266,235.5,569.4266,239.5,559.4266,235.5,563.4266" style="stroke:#181818;stroke-width:1.0;"/><line style="stroke:#181818;stroke-width:1.0;" x1="533" x2="533" y1="513.7545" y2="569.4266"/><polygon fill="#181818" points="529,559.4266,533,569.4266,537,559.4266,533,563.4266" style="stroke:#181818;stroke-width:1.0;"/><line style="stroke:#181818;stroke-width:1.0;" x1="357.5" x2="357.5" y1="33.853" y2="57.706"/><polygon fill="#181818" points="353.5,47.706,357.5,57.706,361.5,47.706,357.5,51.706" style="stroke:#181818;stroke-width:1.0;"/><line style="stroke:#181818;stroke-width:1.0;" x1="357.5" x2="357.5" y1="575.4266" y2="595.4266"/><polygon fill="#181818" points="353.5,585.4266,357.5,595.4266,361.5,585.4266,357.5,589.4266" style="stroke:#181818;stroke-width:1.0;"/><!--SRC=[TPAxRiCm34LtVGNXAPcAhlPM56Yx5KWo1uJ5s49iof3e1ldxKb9UHX1jkdnT7YaA1Z6WXxqG37GejtHw7mNUyvNOvWHpyE5eQiTHaCMXbbWNM_z7uRoNFX1QE0G_mkTLtMQnCJMnK81n7iIrg8sxuEUfCO4cmZApZcdCFMEa6B6ZveKzpHOG3pWCsMfSEiqTvyacZpbS-jGqEYd2laGjHDSn3g_cbAm8NxkVvOHY7Kwz6mXMJnoYE7KMPkQPkpMu22i9CwqpGy0E7HT7ZpGZ1UsnGBd9qfLZ0PLU3Rwtsz_DfQ847c3cl1FghZeEMizChJZFYPYIrr7LsqMjcdi5MgjTHd-1bhAFx4zyHRZSUUdslh1RBcmIilnpReI3w_fazCDB__I5L4UjM7HNRGg-rIy1qgVNhRAZIelpNXZEvlOoKVpq3m00]--></g></svg>