<?xml version="1.0" encoding="us-ascii" standalone="no"?><svg xmlns="http://www.w3.org/2000/svg" xmlns:xlink="http://www.w3.org/1999/xlink" contentStyleType="text/css" height="628px" preserveAspectRatio="none" style="width:892px;height:628px;background:#FFFFFF;" version="1.1" viewBox="0 0 892 628" width="892px" zoomAndPan="magnify"><defs/><g><path d="M237.5,10 L237.5,37.706 A0,0 0 0 0 237.5,37.706 L295.5,37.706 A0,0 0 0 0 295.5,37.706 L295.5,28 L315.5,23.853 L295.5,20 L295.5,20 L285.5,10 L237.5,10 A0,0 0 0 0 237.5,10 " fill="#FEFFDD" style="stroke:#181818;stroke-width:0.5;"/><path d="M285.5,10 L285.5,20 L295.5,20 L285.5,10 " fill="#FEFFDD" style="stroke:#181818;stroke-width:0.5;"/><text fill="#000000" font-family="sans-serif" font-size="13" lengthAdjust="spacing" textLength="37" x="243.5" y="28.897">host 1</text><ellipse cx="325.5" cy="23.853" fill="#222222" rx="10" ry="10" style="stroke:#222222;stroke-width:1.0;"/><path d="M618.5,293.8603 L618.5,339.2723 L880.5,339.2723 L880.5,303.8603 L870.5,293.8603 L618.5,293.8603 " fill="#FEFFDD" style="stroke:#181818;stroke-width:0.5;"/><path d="M870.5,293.8603 L870.5,303.8603 L880.5,303.8603 L870.5,293.8603 " fill="#FEFFDD" style="stroke:#181818;stroke-width:0.5;"/><text fill="#000000" font-family="sans-serif" font-size="13" lengthAdjust="spacing" textLength="241" x="624.5" y="312.7573">Both DiscoveryThread and ServerThread</text><text fill="#000000" font-family="sans-serif" font-size="13" lengthAdjust="spacing" textLength="174" x="624.5" y="330.4633">process the 'hosts' dictionary</text><rect fill="#555555" height="6" rx="2.5" ry="2.5" style="stroke:#555555;stroke-width:1.0;" width="597.5" x="11" y="57.706"/><rect fill="#F1F1F1" height="36.3441" rx="12.5" ry="12.5" style="stroke:#181818;stroke-width:0.5;" width="164" x="153.5" y="83.706"/><text fill="#000000" font-family="sans-serif" font-size="12" lengthAdjust="spacing" textLength="144" x="163.5" y="106.5341">initialize DiscoveryThread</text><rect fill="#F1F1F1" height="36.3441" rx="12.5" ry="12.5" style="stroke:#181818;stroke-width:0.5;" width="140" x="165.5" y="155.0501"/><text fill="#000000" font-family="sans-serif" font-size="12" lengthAdjust="spacing" textLength="120" x="175.5" y="177.8782">enter multicast group</text><path d="M23,302.7133 L23,330.4193 A0,0 0 0 0 23,330.4193 L138,330.4193 A0,0 0 0 0 138,330.4193 L138,320.7133 L158,316.5663 L138,312.7133 L138,312.7133 L128,302.7133 L23,302.7133 A0,0 0 0 0 23,302.7133 " fill="#FEFFDD" style="stroke:#181818;stroke-width:0.5;"/><path d="M128,302.7133 L128,312.7133 L138,312.7133 L128,302.7133 " fill="#FEFFDD" style="stroke:#181818;stroke-width:0.5;"/><text fill="#000000" font-family="sans-serif" font-size="13" lengthAdjust="spacing" textLength="94" x="29" y="321.6103">sent to all hosts</text><rect fill="#F1F1F1" height="36.3441" rx="12.5" ry="12.5" style="stroke:#181818;stroke-width:0.5;" width="155" x="158" y="298.3942"/><text fill="#000000" font-family="sans-serif" font-size="12" lengthAdjust="spacing" textLength="135" x="168" y="321.2223">send multicast message</text><rect fill="#F1F1F1" height="36.3441" rx="12.5" ry="12.5" style="stroke:#181818;stroke-width:0.5;" width="92" x="189.5" y="369.7384"/><text fill="#000000" font-family="sans-serif" font-size="12" lengthAdjust="spacing" textLength="72" x="199.5" y="392.5664">update hosts</text><path d="M37,445.4015 L37,473.1075 A0,0 0 0 0 37,473.1075 L133,473.1075 A0,0 0 0 0 133,473.1075 L133,463.4015 L153,459.2545 L133,455.4015 L133,455.4015 L123,445.4015 L37,445.4015 A0,0 0 0 0 37,445.4015 " fill="#FEFFDD" style="stroke:#181818;stroke-width:0.5;"/><path d="M123,445.4015 L123,455.4015 L133,455.4015 L123,445.4015 " fill="#FEFFDD" style="stroke:#181818;stroke-width:0.5;"/><text fill="#000000" font-family="sans-serif" font-size="13" lengthAdjust="spacing" textLength="75" x="43" y="464.2985">updates GUI</text><rect fill="#F1F1F1" height="36.3441" rx="12.5" ry="12.5" style="stroke:#181818;stroke-width:0.5;" width="165" x="153" y="441.0825"/><text fill="#000000" font-family="sans-serif" font-size="12" lengthAdjust="spacing" textLength="145" x="163" y="463.9106">emit hosts_updated signal</text><polygon fill="#F1F1F1" points="235.5,226.3942,247.5,238.3942,235.5,250.3942,223.5,238.3942,235.5,226.3942" style="stroke:#181818;stroke-width:0.5;"/><polygon fill="#F1F1F1" points="223.5,525.4266,247.5,525.4266,259.5,537.4266,247.5,549.4266,223.5,549.4266,211.5,537.4266,223.5,525.4266" style="stroke:#181818;stroke-width:0.5;"/><text fill="#000000" font-family="sans-serif" font-size="11" lengthAdjust="spacing" textLength="22" x="224.5" y="541.6946">true</text><rect fill="#F1F1F1" height="36.3441" rx="12.5" ry="12.5" style="stroke:#181818;stroke-width:0.5;" width="146" x="390.5" y="119.3781"/><text fill="#000000" font-family="sans-serif" font-size="12" lengthAdjust="spacing" textLength="126" x="400.5" y="142.2062">initialize ServerThread</text><rect fill="#F1F1F1" height="36.3441" rx="12.5" ry="12.5" style="stroke:#181818;stroke-width:0.5;" width="125" x="401" y="190.7222"/><text fill="#000000" font-family="sans-serif" font-size="12" lengthAdjust="spacing" textLength="105" x="411" y="213.5503">start HTTPS server</text><rect fill="#F1F1F1" height="36.3441" rx="12.5" ry="12.5" style="stroke:#181818;stroke-width:0.5;" width="234" x="346.5" y="334.0663"/><text fill="#000000" font-family="sans-serif" font-size="12" lengthAdjust="spacing" textLength="214" x="356.5" y="356.8944">wait for connection to route "/connect"</text><rect fill="#F1F1F1" height="36.3441" rx="12.5" ry="12.5" style="stroke:#181818;stroke-width:0.5;" width="198" x="364.5" y="405.4104"/><text fill="#000000" font-family="sans-serif" font-size="12" lengthAdjust="spacing" textLength="178" x="374.5" y="428.2385">add remote host to known hosts</text><polygon fill="#F1F1F1" points="463.5,262.0663,475.5,274.0663,463.5,286.0663,451.5,274.0663,463.5,262.0663" style="stroke:#181818;stroke-width:0.5;"/><polygon fill="#F1F1F1" points="451.5,489.7545,475.5,489.7545,487.5,501.7545,475.5,513.7545,451.5,513.7545,439.5,501.7545,451.5,489.7545" style="stroke:#181818;stroke-width:0.5;"/><text fill="#000000" font-family="sans-serif" font-size="11" lengthAdjust="spacing" textLength="22" x="452.5" y="506.0225">true</text><rect fill="#555555" height="6" rx="2.5" ry="2.5" style="stroke:#555555;stroke-width:1.0;" width="597.5" x="11" y="569.4266"/><ellipse cx="325.5" cy="606.4266" fill="none" rx="11" ry="11" style="stroke:#222222;stroke-width:1.0;"/><ellipse cx="325.5" cy="606.4266" fill="#222222" rx="6" ry="6" style="stroke:#222222;stroke-width:1.0;"/><line style="stroke:#181818;stroke-width:1.0;" x1="235.5" x2="235.5" y1="120.0501" y2="155.0501"/><polygon fill="#181818" points="231.5,145.0501,235.5,155.0501,239.5,145.0501,235.5,149.0501" style="stroke:#181818;stroke-width:1.0;"/><line style="stroke:#181818;stroke-width:1.0;" x1="235.5" x2="235.5" y1="334.7384" y2="369.7384"/><polygon fill="#181818" points="231.5,359.7384,235.5,369.7384,239.5,359.7384,235.5,363.7384" style="stroke:#181818;stroke-width:1.0;"/><line style="stroke:#181818;stroke-width:1.0;" x1="235.5" x2="235.5" y1="406.0825" y2="441.0825"/><polygon fill="#181818" points="231.5,431.0825,235.5,441.0825,239.5,431.0825,235.5,435.0825" style="stroke:#181818;stroke-width:1.0;"/><line style="stroke:#181818;stroke-width:1.0;" x1="235.5" x2="235.5" y1="250.3942" y2="298.3942"/><polygon fill="#181818" points="231.5,288.3942,235.5,298.3942,239.5,288.3942,235.5,292.3942" style="stroke:#181818;stroke-width:1.0;"/><line style="stroke:#181818;stroke-width:1.0;" x1="259.5" x2="330" y1="537.4266" y2="537.4266"/><polygon fill="#181818" points="326,397.9104,330,387.9104,334,397.9104,330,393.9104" style="stroke:#181818;stroke-width:1.0;"/><line style="stroke:#181818;stroke-width:1.0;" x1="330" x2="330" y1="238.3942" y2="537.4266"/><line style="stroke:#181818;stroke-width:1.0;" x1="330" x2="247.5" y1="238.3942" y2="238.3942"/><polygon fill="#181818" points="257.5,234.3942,247.5,238.3942,257.5,242.3942,253.5,238.3942" style="stroke:#181818;stroke-width:1.0;"/><line style="stroke:#181818;stroke-width:1.0;" x1="235.5" x2="235.5" y1="477.4266" y2="525.4266"/><polygon fill="#181818" points="231.5,515.4266,235.5,525.4266,239.5,515.4266,235.5,519.4266" style="stroke:#181818;stroke-width:1.0;"/><line style="stroke:#181818;stroke-width:1.0;" x1="235.5" x2="235.5" y1="191.3942" y2="226.3942"/><polygon fill="#181818" points="231.5,216.3942,235.5,226.3942,239.5,216.3942,235.5,220.3942" style="stroke:#181818;stroke-width:1.0;"/><line style="stroke:#181818;stroke-width:1.0;" x1="463.5" x2="463.5" y1="155.7222" y2="190.7222"/><polygon fill="#181818" points="459.5,180.7222,463.5,190.7222,467.5,180.7222,463.5,184.7222" style="stroke:#181818;stroke-width:1.0;"/><line style="stroke:#181818;stroke-width:1.0;" x1="463.5" x2="463.5" y1="370.4104" y2="405.4104"/><polygon fill="#181818" points="459.5,395.4104,463.5,405.4104,467.5,395.4104,463.5,399.4104" style="stroke:#181818;stroke-width:1.0;"/><line style="stroke:#181818;stroke-width:1.0;" x1="463.5" x2="463.5" y1="286.0663" y2="334.0663"/><polygon fill="#181818" points="459.5,324.0663,463.5,334.0663,467.5,324.0663,463.5,328.0663" style="stroke:#181818;stroke-width:1.0;"/><line style="stroke:#181818;stroke-width:1.0;" x1="487.5" x2="592.5" y1="501.7545" y2="501.7545"/><polygon fill="#181818" points="588.5,397.9104,592.5,387.9104,596.5,397.9104,592.5,393.9104" style="stroke:#181818;stroke-width:1.0;"/><line style="stroke:#181818;stroke-width:1.0;" x1="592.5" x2="592.5" y1="274.0663" y2="501.7545"/><line style="stroke:#181818;stroke-width:1.0;" x1="592.5" x2="475.5" y1="274.0663" y2="274.0663"/><polygon fill="#181818" points="485.5,270.0663,475.5,274.0663,485.5,278.0663,481.5,274.0663" style="stroke:#181818;stroke-width:1.0;"/><line style="stroke:#181818;stroke-width:1.0;" x1="463.5" x2="463.5" y1="441.7545" y2="489.7545"/><polygon fill="#181818" points="459.5,479.7545,463.5,489.7545,467.5,479.7545,463.5,483.7545" style="stroke:#181818;stroke-width:1.0;"/><line style="stroke:#181818;stroke-width:1.0;" x1="463.5" x2="463.5" y1="227.0663" y2="262.0663"/><polygon fill="#181818" points="459.5,252.0663,463.5,262.0663,467.5,252.0663,463.5,256.0663" style="stroke:#181818;stroke-width:1.0;"/><line style="stroke:#181818;stroke-width:1.0;" x1="235.5" x2="235.5" y1="63.706" y2="83.706"/><polygon fill="#181818" points="231.5,73.706,235.5,83.706,239.5,73.706,235.5,77.706" style="stroke:#181818;stroke-width:1.0;"/><line style="stroke:#181818;stroke-width:1.0;" x1="463.5" x2="463.5" y1="63.706" y2="119.3781"/><polygon fill="#181818" points="459.5,109.3781,463.5,119.3781,467.5,109.3781,463.5,113.3781" style="stroke:#181818;stroke-width:1.0;"/><line style="stroke:#181818;stroke-width:1.0;" x1="235.5" x2="235.5" y1="549.4266" y2="569.4266"/><polygon fill="#181818" points="231.5,559.4266,235.5,569.4266,239.5,559.4266,235.5,563.4266" style="stroke:#181818;stroke-width:1.0;"/><line style="stroke:#181818;stroke-width:1.0;" x1="463.5" x2="463.5" y1="513.7545" y2="569.4266"/><polygon fill="#181818" points="459.5,559.4266,463.5,569.4266,467.5,559.4266,463.5,563.4266" style="stroke:#181818;stroke-width:1.0;"/><line style="stroke:#181818;stroke-width:1.0;" x1="325.5" x2="325.5" y1="33.853" y2="57.706"/><polygon fill="#181818" points="321.5,47.706,325.5,57.706,329.5,47.706,325.5,51.706" style="stroke:#181818;stroke-width:1.0;"/><line style="stroke:#181818;stroke-width:1.0;" x1="325.5" x2="325.5" y1="575.4266" y2="595.4266"/><polygon fill="#181818" points="321.5,585.4266,325.5,595.4266,329.5,585.4266,325.5,589.4266" style="stroke:#181818;stroke-width:1.0;"/><!--SRC=[TL71JiCm3BtdAwnT1YV4jRqX9E26j756LkErrjAaIbocyVKuoTWwn7oB_VBytdCIZ690omSXSBIhhrn3I0AFvKdU5e3PXRWt3NiMHiVV1C-Skl15yRWT8g5jJKDUAC8uE-4EbQ6FOPvQ4saYhEHDodmNn4WfOK_j3HsA5f00w5pHbAub5SPvigZ_ohZoD3IorCPddLf8t7jqj_PKL8ANZxVh3LKw70Ps17SIPxelGG3soBvkMqIoeQY1_EPH3UUOuNMxVT-edJokWqKe1NT0rQpKq0NlgHCEFZlN15Niwk7KNRMN7sYjiepXP3wZzpuS_3AA__IRxAvSynn6v7x8Mfw237_l2gZmfJ75JJ5qUZcGWM1Trgt1SX6DyMZEyIK9qmy0]--></g></svg>